<svg xmlns="http://www.w3.org/2000/svg" viewBox="0 0 900 700" width="900" height="700" role="img" aria-label="A fast bowler at the point of delivery against a desert dusk sky"><defs><linearGradient id="sk" x1="0" y1="0" x2="0" y2="1"><stop offset="0.00" stop-color="#1c1033"/><stop offset="0.25" stop-color="#4b1d4a"/><stop offset="0.50" stop-color="#9c3a3f"/><stop offset="0.75" stop-color="#E0743A"/><stop offset="1.00" stop-color="#F6B657"/></linearGradient></defs><rect width="900" height="700" fill="url(#sk)"/><circle cx="240" cy="380" r="192" fill="#F6B657" opacity="0.1"/><circle cx="240" cy="380" r="136" fill="#F6B657" opacity="0.18"/><circle cx="240" cy="380" r="104" fill="#F6B657" opacity="0.3"/><circle cx="240" cy="380" r="80" fill="#F6B657"/><polygon points="0,420 20,333 32,327 122,327 136,335 152,420 292,408 355,412 395,420 509,414 529,357 541,351 618,351 632,359 648,420 722,334 734,328 865,328 879,336 895,420 900,420 900,1020 0,1020" fill="#6b2a2a"/><polygon points="0,442 57,439 77,351 89,345 154,345 168,353 184,442 258,364 270,358 308,358 322,366 338,442 382,402 394,396 493,396 507,404 523,442 591,338 603,332 731,332 745,340 761,442 929,428 900,442 900,1042 0,1042" fill="#4a1b1d"/><polygon points="0,464 77,450 119,455 139,382 151,376 304,376 318,384 334,464 386,406 398,400 484,400 498,408 514,464 572,351 584,345 718,345 732,353 748,464 779,367 791,361 916,361 930,369 946,464 900,464 900,1064 0,1064" fill="#2f1112"/><g fill="#2a0e05"><rect x="772" y="400" width="15" height="140" rx="8"/><rect x="746" y="459" width="13" height="38" rx="6"/><rect x="746" y="499" width="31" height="12" rx="6"/><rect x="800" y="455" width="13" height="44" rx="6"/><rect x="780" y="490" width="32" height="12" rx="6"/></g><defs><linearGradient id="gr" x1="0" y1="0" x2="0" y2="1"><stop offset="0" stop-color="#3B6D11"/><stop offset="1" stop-color="#2c520c"/></linearGradient></defs><path d="M0 536 Q 450.0 502 900 536 L 900 700 L 0 700 Z" fill="url(#gr)"/><polygon points="425,530 515,530 552,700 388,700" fill="#d9b779" opacity=".85"/><rect x="420.0" y="520.8" width="5.0" height="79.2" fill="#f3e6d4"/><rect x="432.1" y="520.8" width="5.0" height="79.2" fill="#f3e6d4"/><rect x="444.2" y="520.8" width="5.0" height="79.2" fill="#f3e6d4"/><rect x="420.0" y="517.5" width="29.2" height="3.9" fill="#f3e6d4"/><line x1="511.9" y1="408.4" x2="468.5" y2="485.9" stroke="#2a0e05" stroke-width="26.35" stroke-linecap="round"/><line x1="468.5" y1="485.9" x2="422.0" y2="569.6" stroke="#2a0e05" stroke-width="23.25" stroke-linecap="round"/><line x1="511.9" y1="408.4" x2="558.4" y2="495.2" stroke="#2a0e05" stroke-width="26.35" stroke-linecap="round"/><line x1="558.4" y1="495.2" x2="595.6" y2="591.3" stroke="#2a0e05" stroke-width="23.25" stroke-linecap="round"/><line x1="422.0" y1="569.6" x2="409.6" y2="569.6" stroke="#2a0e05" stroke-width="13.950000000000001" stroke-linecap="round"/><line x1="595.6" y1="591.3" x2="611.1" y2="591.3" stroke="#2a0e05" stroke-width="13.950000000000001" stroke-linecap="round"/><line x1="527.4" y1="303.0" x2="511.9" y2="408.4" stroke="#2a0e05" stroke-width="46.5" stroke-linecap="round"/><line x1="527.4" y1="309.2" x2="511.9" y2="231.7" stroke="#2a0e05" stroke-width="17.05" stroke-linecap="round"/><line x1="511.9" y1="231.7" x2="499.5" y2="163.5" stroke="#2a0e05" stroke-width="15.5" stroke-linecap="round"/><line x1="527.4" y1="309.2" x2="580.1" y2="340.2" stroke="#2a0e05" stroke-width="17.05" stroke-linecap="round"/><line x1="580.1" y1="340.2" x2="617.3" y2="377.4" stroke="#2a0e05" stroke-width="15.5" stroke-linecap="round"/><circle cx="533.6" cy="268.9" r="23.2" fill="#2a0e05"/><line x1="527.4" y1="265.8" x2="563.1" y2="270.4" stroke="#2a0e05" stroke-width="7.75" stroke-linecap="round"/><circle cx="496.4" cy="154.2" r="9.3" fill="#c0261b" stroke="#fff3" stroke-width="1"/></svg>
